<?xml version="1.0" encoding="UTF-8"?><svg id="a" xmlns="http://www.w3.org/2000/svg" viewBox="0 0 449.96 638.22"><defs><style>.e{fill:#ee4d30;fill-rule:evenodd;}</style></defs><g id="b"><path id="c" class="e" d="M301.45,345.67c-2.69,22.18-16.13,39.95-36.95,48.84-11.59,4.96-27.16,7.63-39.48,6.79-19.22-.73-37.28-5.41-53.93-13.95-5.95-3.05-14.81-9.15-21.62-14.87-1.72-1.44-1.93-2.37-.79-3.99.62-.93,1.75-2.6,4.26-6.28,3.64-5.33,4.1-6,4.5-6.63,1.16-1.79,3.06-1.94,4.92-.47q.2.15.34.27.31.24,1.03.8c.73.57,1.16.91,1.34,1.04,17.95,14.06,38.86,22.17,59.97,22.98,29.37-.4,50.49-13.6,54.27-33.88,4.16-22.31-13.36-41.59-47.63-52.33-10.72-3.36-37.81-14.2-42.81-17.13-23.46-13.76-34.43-31.79-32.87-54.06,2.39-30.87,31.04-53.89,67.25-54.04,16.19-.03,32.35,3.33,47.87,9.87,5.5,2.32,15.31,7.66,18.7,10.19,1.95,1.43,2.34,3.1,1.22,4.91-.62,1.04-1.66,2.7-3.83,6.15l-.02.04c-2.86,4.55-2.95,4.69-3.61,5.75-1.14,1.73-2.47,1.89-4.52.59-16.61-11.16-35.02-16.77-55.27-17.18-25.21.5-44.11,15.5-45.35,35.94-.33,18.46,13.52,31.94,43.43,42.22,60.71,19.51,83.94,42.38,79.57,78.45M226.47,26.97c39.53,0,71.74,37.51,73.25,84.46h-146.5c1.51-46.95,33.73-84.46,73.25-84.46M431.03,120.26c0-4.88-3.93-8.83-8.77-8.83h-94.96C324.98,49.44,280.72,0,226.47,0s-98.5,49.44-100.83,111.43H30.55c-4.77.09-8.61,4.01-8.61,8.83,0,.23,0,.46.03.68h-.07l13.56,298.82c0,.83.03,1.67.09,2.51.01.19.03.38.04.57l.03.63.03.03c2.06,20.79,17.15,37.54,37.67,38.31l.05.05h301.65c.14,0,.29,0,.43,0s.29,0,.43,0h.66c20.88-.58,37.79-17.56,39.57-38.61h.01s.01-.29.01-.29c.02-.22.03-.44.05-.66.03-.53.05-1.06.06-1.58l14.79-300h-.01c0-.15.01-.3.01-.46"/><path id="d" class="e" d="M399.2,562.54c2.52-8.21,10.13-13.68,19.01-13.68s16.55,5.76,19.34,13.67l.19.54h-38.7l.16-.53ZM446.35,574.44q.05,0,.13,0t.16,0c1.85-.08,3.32-1.66,3.32-3.59,0-.09,0-.17-.01-.3,0-.02,0-.07,0-.22,0-18.13-14.21-32.83-31.75-32.83s-31.74,14.69-31.74,32.83c0,1.35.08,2.7.24,4.04v.07s.06.35.06.35c.87,6.52,3.66,12.51,8.05,17.36,0,0,0,0,.02.03,4.87,5.36,11.49,9.02,18.83,10.39l.1.02h0s.48.07.48.07c.25.04.5.08.85.14,9.66,1.16,18.23-.23,25.49-3.89,1.79-.9,3.39-1.89,4.79-2.94.45-.34.85-.67,1.2-.97.18-.16.32-.29.4-.37,1.64-1.69,1.74-2.28.75-3.83-1.09-1.73-2.05-3.21-2.87-4.43-.29-.43-.54-.79-.75-1.09q-.12-.17-.19-.27s-.03-.04-.05-.07h-.01c-.89-1.13-1.51-1.23-2.5-.35-.11.09-.46.37-.52.43-6.98,6.2-16.51,8.19-26.03,6.2-1.77-.48-3.43-1.08-4.96-1.81-5.96-2.99-10.19-8.32-11.41-14.49l-.1-.49h48.03ZM323.66,562.54c2.52-8.21,10.13-13.68,19.01-13.68s16.55,5.76,19.34,13.67l.19.54h-38.7l.16-.53ZM370.81,574.44q.05,0,.13,0,.08,0,.15,0c1.85-.08,3.32-1.66,3.32-3.59,0-.09,0-.17-.01-.3,0-.02,0-.07,0-.22,0-18.13-14.21-32.83-31.75-32.83s-31.75,14.69-31.75,32.83c0,1.35.08,2.7.24,4.04v.07s.06.35.06.35c.87,6.52,3.66,12.51,8.05,17.36,0,0,0,0,.02.03,4.87,5.36,11.49,9.02,18.83,10.39l.1.02h0s.48.07.48.07c.25.04.5.08.85.14,9.66,1.16,18.23-.23,25.49-3.89,1.79-.9,3.39-1.89,4.79-2.94.45-.34.85-.67,1.2-.97.18-.16.32-.29.4-.37,1.64-1.69,1.74-2.28.75-3.82-1.09-1.73-2.05-3.21-2.87-4.43-.29-.43-.54-.79-.75-1.09q-.12-.17-.19-.27s-.03-.04-.05-.07h0c-.9-1.13-1.51-1.23-2.5-.35-.11.09-.46.37-.52.43-6.98,6.2-16.51,8.19-26.03,6.2-1.77-.48-3.43-1.08-4.96-1.81-5.96-2.99-10.19-8.32-11.41-14.49l-.1-.49h48.03ZM266.01,592.52c-11.81,0-21.46-9.36-21.76-21.09v-1.1c.29-11.71,9.95-21.07,21.76-21.07s21.77,9.69,21.77,21.64-9.74,21.64-21.77,21.64M266.02,537.77c-7.74,0-15.14,2.64-21.09,7.48l-.68.55v-6.05c0-1.61-.35-1.97-1.98-1.97h-7.6c-1.66,0-1.98.33-1.98,1.97v96.51c0,1.59.37,1.97,1.98,1.97h7.6c1.62,0,1.98-.38,1.98-1.97v-40.25l.68.55c5.95,4.84,13.35,7.48,21.09,7.48,18.41,0,33.33-14.83,33.33-33.13s-14.92-33.13-33.33-33.13M187.75,591.78c-12.04,0-21.81-9.6-21.81-21.45s9.77-21.45,21.81-21.45,21.81,9.6,21.81,21.45-9.76,21.45-21.81,21.45M187.76,537.5c-18.44,0-33.39,14.7-33.39,32.84s14.95,32.84,33.39,32.84,33.39-14.71,33.39-32.84-14.95-32.84-33.39-32.84M113.32,538.23c-6.73,0-13.25,2.16-18.65,6.17l-.66.49v-44.82c0-1.49-.49-1.97-1.97-1.97h-7.96c-1.61,0-1.97.38-1.97,1.97v102.25c0,1.55.4,1.97,1.97,1.97h7.96c1.48,0,1.97-.51,1.97-1.97v-33.4c.08-10.51,8.71-19,19.31-19s19.26,8.53,19.31,19.08v33.32c0,1.69.28,1.97,1.97,1.97h7.94c1.68,0,1.97-.29,1.97-1.97v-33.42c-.06-16.86-14.12-30.66-31.19-30.66M2.47,585.73l-.02.03c-1.13,1.72-1.61,2.44-1.87,2.86-.89,1.33-.78,1.92.58,3.08,3.19,2.57,7.28,5.27,10.05,6.62,7.69,3.76,16,5.75,24.8,5.93,5.69.29,12.83-1.07,18.14-3.44,9.63-4.29,15.76-12.66,16.83-22.97,1.74-16.7-9.13-27.15-37.13-35.56h0c-13.04-4.21-19.17-9.8-19.17-17.61.38-8.63,8.39-15.08,19.18-15.48,8.7.02,16.38,2.33,23.94,7.19,1.59.97,2.33.79,3.4-.6.12-.21.47-.7,1.9-2.76h0c1.34-1.93,1.78-2.57,1.89-2.76.9-1.7.77-2.35-.86-3.51-1.6-1.15-6.12-3.5-8.71-4.53-7.19-2.87-14.62-4.26-22.01-4.12-16.83.37-29.96,11.31-30.82,25.67-.55,10.37,4.71,18.71,15.71,24.88,3.08,1.63,14.36,5.89,19.62,7.43,14.96,4.38,22.76,12.44,21.15,21.95-1.46,8.64-10.52,14.39-23.22,14.78-9.21-.19-18.49-3.57-26.55-9.62-.04-.03-.24-.18-.62-.46q-.53-.39-.61-.45c-1.64-1.13-2.61-1.04-3.61.45-.12.19-1.37,2.08-1.98,3.01"/></g></svg>